<svg xmlns="http://www.w3.org/2000/svg" xmlns:xlink="http://www.w3.org/1999/xlink" width="928.614" height="675.349" viewBox="0 0 928.614 675.349">
  <defs>
    <filter id="Rectangle_51" x="0" y="0" width="836" height="576" filterUnits="userSpaceOnUse">
      <feOffset input="SourceAlpha"/>
      <feGaussianBlur stdDeviation="10.5" result="blur"/>
      <feFlood flood-color="#0e0249" flood-opacity="0.078"/>
      <feComposite operator="in" in2="blur"/>
      <feComposite in="SourceGraphic"/>
    </filter>
  </defs>
  <g id="Group_154" data-name="Group 154" transform="translate(-100.5 -1639.5)">
    <path id="Path_2322" data-name="Path 2322" d="M1447.742,654.6H1267.188L1176.91,810.967l90.278,156.367h180.554l90.279-156.367Z" transform="matrix(0.875, 0.485, -0.485, 0.875, -0.072, 721.794)" fill="none" stroke="#ffc701" stroke-linecap="round" stroke-linejoin="round" stroke-width="2"/>
    <g id="Bill_Device_Image" data-name="Bill Device Image">
      <g transform="matrix(1, 0, 0, 1, 100.5, 1639.5)" filter="url(#Rectangle_51)">
        <rect id="Rectangle_51-2" data-name="Rectangle 51" width="773" height="513" rx="6" transform="translate(31.5 31.5)" fill="#fff"/>
      </g>
      <g id="Group_108" data-name="Group 108">
        <g id="server" transform="translate(196.387 1722.587)">
          <path id="Path_2196" data-name="Path 2196" d="M20.757,53.941V98.834c0,3.314,11.715,6,26.166,6s26.166-2.686,26.166-6V53.941Z" transform="translate(-20.757 -47.941)" fill="#d8d8d8"/>
          <path id="Path_2197" data-name="Path 2197" d="M252.3,53.941V68.905h0c0,3.082-10.134,5.621-23.177,5.961q1.472.038,2.989.039c8.127,0,15.388-.85,20.188-2.182V83.869c0,3.082-10.134,5.621-23.177,5.961q1.472.038,2.989.039c8.127,0,15.388-.85,20.188-2.182v11.2c0,3.082-10.134,5.621-23.177,5.961q1.472.039,2.99.039c14.451,0,26.166-2.686,26.166-6V83.927h0c0-.019,0-.038,0-.058V68.905h0V53.941Z" transform="translate(-205.945 -47.941)" fill="#d8d8d8"/>
          <g id="Group_92" data-name="Group 92" transform="translate(0 19.217)">
            <path id="Path_2198" data-name="Path 2198" d="M46.923,178.77c-14.451,0-26.166-2.686-26.166-6v1.747c0,3.314,11.715,6,26.166,6s26.166-2.686,26.166-6V172.77C73.09,176.084,61.375,178.77,46.923,178.77Z" transform="translate(-20.757 -172.77)" fill="#bcb9bf"/>
            <path id="Path_2199" data-name="Path 2199" d="M46.923,313.3c-14.451,0-26.166-2.686-26.166-6v1.747c0,3.314,11.715,6,26.166,6s26.166-2.686,26.166-6V307.3C73.09,310.614,61.375,313.3,46.923,313.3Z" transform="translate(-20.757 -292.336)" fill="#bcb9bf"/>
            <path id="Path_2200" data-name="Path 2200" d="M46.923,447.86c-14.451,0-26.166-2.686-26.166-6v1.747c0,3.314,11.715,6,26.166,6s26.166-2.686,26.166-6V441.86C73.09,445.174,61.375,447.86,46.923,447.86Z" transform="translate(-20.757 -411.929)" fill="#bcb9bf"/>
          </g>
          <ellipse id="Ellipse_7" data-name="Ellipse 7" cx="26.166" cy="6" rx="26.166" ry="6" transform="translate(0 0)" fill="#bcb9bf"/>
          <circle id="Ellipse_8" data-name="Ellipse 8" cx="2.49" cy="2.49" r="2.49" transform="translate(39.568 15.562)" fill="#d03e13"/>
          <path id="Path_2202" data-name="Path 2202" d="M99.577,155.158a86.882,86.882,0,0,1-18.914-1.83.859.859,0,1,1,.393-1.673,85.15,85.15,0,0,0,18.521,1.784c2.949,0,5.841-.112,8.6-.334a.859.859,0,0,1,.138,1.712C105.511,155.043,102.572,155.158,99.577,155.158Z" transform="translate(-73.411 -134.766)" fill="#94919e"/>
          <circle id="Ellipse_9" data-name="Ellipse 9" cx="2.49" cy="2.49" r="2.49" transform="translate(39.568 30.329)" fill="#d03e13"/>
          <path id="Path_2203" data-name="Path 2203" d="M99.577,287.92a86.888,86.888,0,0,1-18.914-1.83.859.859,0,0,1,.393-1.673A85.155,85.155,0,0,0,99.578,286.2c2.949,0,5.841-.112,8.6-.334a.859.859,0,1,1,.138,1.712C105.511,287.806,102.572,287.92,99.577,287.92Z" transform="translate(-73.411 -252.761)" fill="#94919e"/>
          <circle id="Ellipse_10" data-name="Ellipse 10" cx="2.49" cy="2.49" r="2.49" transform="translate(39.568 45.119)" fill="#d03e13"/>
          <path id="Path_2204" data-name="Path 2204" d="M99.577,420.886a86.882,86.882,0,0,1-18.914-1.83.859.859,0,0,1,.393-1.673,85.15,85.15,0,0,0,18.521,1.784c2.949,0,5.841-.112,8.6-.334a.859.859,0,0,1,.138,1.712C105.511,420.772,102.572,420.886,99.577,420.886Z" transform="translate(-73.411 -370.937)" fill="#94919e"/>
        </g>
        <g id="flat" transform="translate(196.387 1826.152)">
          <path id="Path_2205" data-name="Path 2205" d="M248.946,155.613h-20.54V102.2h22.466v44.634l-1.926,2.934Zm0,0" transform="translate(-197 -88.146)" fill="#eb8d00"/>
          <path id="Path_2206" data-name="Path 2206" d="M213.552,42.711H210L207.066,66.17,210,103.611l3.551-.5Zm0,0" transform="translate(-178.594 -36.838)" fill="#fdae02"/>
          <path id="Path_2207" data-name="Path 2207" d="M3.349,0V5.873H0v60.4l18.935,2.248,12.471-1.749V0Zm0,0" transform="translate(0 0)" fill="#ffc701"/>
          <g id="Group_93" data-name="Group 93" transform="translate(10.27 14.099)">
            <path id="Path_2208" data-name="Path 2208" d="M74.691,102.535h4.126V108.4H74.691Zm0,0" transform="translate(-74.691 -102.535)" fill="#f3fffb"/>
            <path id="Path_2209" data-name="Path 2209" d="M149.383,102.535h4.126V108.4h-4.126Zm0,0" transform="translate(-139.113 -102.535)" fill="#f3fffb"/>
            <path id="Path_2210" data-name="Path 2210" d="M74.691,187.895h4.126v5.869H74.691Zm0,0" transform="translate(-74.691 -176.158)" fill="#f3fffb"/>
            <path id="Path_2211" data-name="Path 2211" d="M149.383,187.895h4.126v5.869h-4.126Zm0,0" transform="translate(-139.113 -176.158)" fill="#f3fffb"/>
            <path id="Path_2212" data-name="Path 2212" d="M74.691,273.258h4.126v5.868H74.691Zm0,0" transform="translate(-74.691 -249.783)" fill="#f3fffb"/>
            <path id="Path_2213" data-name="Path 2213" d="M149.383,273.258h4.126v5.868h-4.126Zm0,0" transform="translate(-139.113 -249.783)" fill="#f3fffb"/>
            <path id="Path_2214" data-name="Path 2214" d="M74.691,358.617h4.126v5.868H74.691Zm0,0" transform="translate(-74.691 -323.405)" fill="#f3fffb"/>
            <path id="Path_2215" data-name="Path 2215" d="M149.383,358.617h4.126v5.868h-4.126Zm0,0" transform="translate(-139.113 -323.405)" fill="#f3fffb"/>
          </g>
          <path id="Path_2216" data-name="Path 2216" d="M292.762,187.895h4.126v5.869h-4.126Zm0,0" transform="translate(-252.507 -162.059)" fill="#ffd27b"/>
          <path id="Path_2217" data-name="Path 2217" d="M292.762,273.258h4.126v5.868h-4.126Zm0,0" transform="translate(-252.507 -235.685)" fill="#ffd27b"/>
          <path id="Path_2218" data-name="Path 2218" d="M361.871,421.637H366v10.27h-4.127Zm0,0" transform="translate(-312.113 -363.661)" fill="#8f4d24"/>
          <path id="Path_2219" data-name="Path 2219" d="M320.365,344.292a9.009,9.009,0,1,1,9.009-9.01A9.02,9.02,0,0,1,320.365,344.292Zm0,0" transform="translate(-268.544 -281.41)" fill="#07bbc8"/>
          <path id="Path_2220" data-name="Path 2220" d="M248.549,481.988H219.206l-1.467,2.682,1.467,1.444h29.344Zm0,0" transform="translate(-187.8 -415.714)" fill="#17075e"/>
          <path id="Path_2221" data-name="Path 2221" d="M0,481.988H31.406v4.127H0Zm0,0" transform="translate(0 -415.714)" fill="#17075e"/>
        </g>
        <g id="cloud-network" transform="translate(196.387 1948.285)">
          <path id="Path_2222" data-name="Path 2222" d="M120,319.863a2.085,2.085,0,0,0,4.17,0" transform="translate(-104.363 -278.179)" fill="#00aeef"/>
          <path id="Path_2223" data-name="Path 2223" d="M124.17,401.948a2.085,2.085,0,1,1-2.085-2.085A2.085,2.085,0,0,1,124.17,401.948Zm0,0" transform="translate(-104.363 -347.754)" fill="#00aeef"/>
          <path id="Path_2224" data-name="Path 2224" d="M60.463,29.15A12.5,12.5,0,0,1,49,41.608l-37.529.052A11.461,11.461,0,0,1,0,30.193c0-5.171,3.419-8.5,8.121-9.934A13.476,13.476,0,0,1,7.3,15.6a8.346,8.346,0,0,1,14.136-6,13.552,13.552,0,0,1,26.155,7.057c.125-.011.24-.011.365-.011a12.51,12.51,0,0,1,12.51,12.51Zm0,0" transform="translate(0 0.024)" fill="#9b53ec"/>
          <path id="Path_2225" data-name="Path 2225" d="M125.529,194.288H88V183.863h37.529Zm0,0" transform="translate(-76.533 -159.901)" fill="#07bbc8"/>
          <path id="Path_2226" data-name="Path 2226" d="M124.17,209.948a2.085,2.085,0,1,1-2.085-2.085A2.085,2.085,0,0,1,124.17,209.948Zm0,0" transform="translate(-104.363 -180.774)" fill="#f1f2f2"/>
          <path id="Path_2227" data-name="Path 2227" d="M125.529,290.288H88V279.863h37.529Zm0,0" transform="translate(-76.533 -243.391)" fill="#07bbc8"/>
          <path id="Path_2228" data-name="Path 2228" d="M124.17,305.948a2.085,2.085,0,1,1-2.085-2.085A2.085,2.085,0,0,1,124.17,305.948Zm0,0" transform="translate(-104.363 -264.264)" fill="#f1f2f2"/>
          <path id="Path_2229" data-name="Path 2229" d="M125.529,386.288H88V375.863h37.529Zm0,0" transform="translate(-76.533 -326.882)" fill="#07bbc8"/>
          <g id="Group_94" data-name="Group 94" transform="translate(15.637 26.047)">
            <path id="Path_2230" data-name="Path 2230" d="M124.17,401.948a2.085,2.085,0,1,1-2.085-2.085A2.085,2.085,0,0,1,124.17,401.948Zm0,0" transform="translate(-120 -373.801)" fill="#f1f2f2"/>
            <path id="Path_2231" data-name="Path 2231" d="M336,199.863h2.085v2.085H336Zm0,0" transform="translate(-307.853 -199.863)" fill="#f1f2f2"/>
            <path id="Path_2232" data-name="Path 2232" d="M304,199.863h2.085v2.085H304Zm0,0" transform="translate(-280.023 -199.863)" fill="#f1f2f2"/>
            <path id="Path_2233" data-name="Path 2233" d="M272,199.863h2.085v2.085H272Zm0,0" transform="translate(-252.193 -199.863)" fill="#f1f2f2"/>
            <path id="Path_2234" data-name="Path 2234" d="M240,199.863h2.085v2.085H240Zm0,0" transform="translate(-224.363 -199.863)" fill="#f1f2f2"/>
            <path id="Path_2235" data-name="Path 2235" d="M208,199.863h2.085v2.085H208Zm0,0" transform="translate(-196.533 -199.863)" fill="#f1f2f2"/>
            <path id="Path_2236" data-name="Path 2236" d="M336,231.863h2.085v2.085H336Zm0,0" transform="translate(-307.853 -227.693)" fill="#f1f2f2"/>
            <path id="Path_2237" data-name="Path 2237" d="M304,231.863h2.085v2.085H304Zm0,0" transform="translate(-280.023 -227.693)" fill="#f1f2f2"/>
            <path id="Path_2238" data-name="Path 2238" d="M272,231.863h2.085v2.085H272Zm0,0" transform="translate(-252.193 -227.693)" fill="#f1f2f2"/>
            <path id="Path_2239" data-name="Path 2239" d="M240,231.863h2.085v2.085H240Zm0,0" transform="translate(-224.363 -227.693)" fill="#f1f2f2"/>
            <path id="Path_2240" data-name="Path 2240" d="M208,231.863h2.085v2.085H208Zm0,0" transform="translate(-196.533 -227.693)" fill="#f1f2f2"/>
            <path id="Path_2241" data-name="Path 2241" d="M176,199.863h2.085v2.085H176Zm0,0" transform="translate(-168.703 -199.863)" fill="#f1f2f2"/>
            <path id="Path_2242" data-name="Path 2242" d="M176,231.863h2.085v2.085H176Zm0,0" transform="translate(-168.703 -227.693)" fill="#f1f2f2"/>
            <path id="Path_2243" data-name="Path 2243" d="M336,295.863h2.085v2.085H336Zm0,0" transform="translate(-307.853 -283.353)" fill="#f1f2f2"/>
            <path id="Path_2244" data-name="Path 2244" d="M304,295.863h2.085v2.085H304Zm0,0" transform="translate(-280.023 -283.353)" fill="#f1f2f2"/>
            <path id="Path_2245" data-name="Path 2245" d="M272,295.863h2.085v2.085H272Zm0,0" transform="translate(-252.193 -283.353)" fill="#f1f2f2"/>
            <path id="Path_2246" data-name="Path 2246" d="M240,295.863h2.085v2.085H240Zm0,0" transform="translate(-224.363 -283.353)" fill="#f1f2f2"/>
            <path id="Path_2247" data-name="Path 2247" d="M208,295.863h2.085v2.085H208Zm0,0" transform="translate(-196.533 -283.353)" fill="#f1f2f2"/>
            <path id="Path_2248" data-name="Path 2248" d="M336,327.863h2.085v2.085H336Zm0,0" transform="translate(-307.853 -311.184)" fill="#f1f2f2"/>
            <path id="Path_2249" data-name="Path 2249" d="M304,327.863h2.085v2.085H304Zm0,0" transform="translate(-280.023 -311.184)" fill="#f1f2f2"/>
            <path id="Path_2250" data-name="Path 2250" d="M272,327.863h2.085v2.085H272Zm0,0" transform="translate(-252.193 -311.184)" fill="#f1f2f2"/>
            <path id="Path_2251" data-name="Path 2251" d="M240,327.863h2.085v2.085H240Zm0,0" transform="translate(-224.363 -311.184)" fill="#f1f2f2"/>
            <path id="Path_2252" data-name="Path 2252" d="M208,327.863h2.085v2.085H208Zm0,0" transform="translate(-196.533 -311.184)" fill="#f1f2f2"/>
            <path id="Path_2253" data-name="Path 2253" d="M176,295.863h2.085v2.085H176Zm0,0" transform="translate(-168.703 -283.353)" fill="#f1f2f2"/>
            <path id="Path_2254" data-name="Path 2254" d="M176,327.863h2.085v2.085H176Zm0,0" transform="translate(-168.703 -311.184)" fill="#f1f2f2"/>
            <path id="Path_2255" data-name="Path 2255" d="M336,391.863h2.085v2.085H336Zm0,0" transform="translate(-307.853 -366.844)" fill="#f1f2f2"/>
            <path id="Path_2256" data-name="Path 2256" d="M304,391.863h2.085v2.085H304Zm0,0" transform="translate(-280.023 -366.844)" fill="#f1f2f2"/>
            <path id="Path_2257" data-name="Path 2257" d="M272,391.863h2.085v2.085H272Zm0,0" transform="translate(-252.193 -366.844)" fill="#f1f2f2"/>
            <path id="Path_2258" data-name="Path 2258" d="M240,391.863h2.085v2.085H240Zm0,0" transform="translate(-224.363 -366.844)" fill="#f1f2f2"/>
            <path id="Path_2259" data-name="Path 2259" d="M208,391.863h2.085v2.085H208Zm0,0" transform="translate(-196.533 -366.844)" fill="#f1f2f2"/>
            <path id="Path_2260" data-name="Path 2260" d="M336,423.863h2.085v2.085H336Zm0,0" transform="translate(-307.853 -394.674)" fill="#f1f2f2"/>
            <path id="Path_2261" data-name="Path 2261" d="M304,423.863h2.085v2.085H304Zm0,0" transform="translate(-280.023 -394.674)" fill="#f1f2f2"/>
            <path id="Path_2262" data-name="Path 2262" d="M272,423.863h2.085v2.085H272Zm0,0" transform="translate(-252.193 -394.674)" fill="#f1f2f2"/>
            <path id="Path_2263" data-name="Path 2263" d="M240,423.863h2.085v2.085H240Zm0,0" transform="translate(-224.363 -394.674)" fill="#f1f2f2"/>
            <path id="Path_2264" data-name="Path 2264" d="M208,423.863h2.085v2.085H208Zm0,0" transform="translate(-196.533 -394.674)" fill="#f1f2f2"/>
            <path id="Path_2265" data-name="Path 2265" d="M176,391.863h2.085v2.085H176Zm0,0" transform="translate(-168.703 -366.844)" fill="#f1f2f2"/>
            <path id="Path_2266" data-name="Path 2266" d="M176,423.863h2.085v2.085H176Zm0,0" transform="translate(-168.703 -394.674)" fill="#f1f2f2"/>
          </g>
        </g>
        <g id="Group_106" data-name="Group 106" transform="translate(41 26.797)">
          <g id="Group_104" data-name="Group 104" transform="translate(162.655 2036.203)">
            <path id="Path_2267" data-name="Path 2267" d="M132.177,58.355q-.367,14.043,0,28.085a2.86,2.86,0,0,0,2.61,2.718q2.52.154,5.039.206-.133-16.967,0-33.934-2.52.053-5.039.206a2.86,2.86,0,0,0-2.61,2.718Z" transform="translate(-131.993 -55.403)" fill="#0e0249"/>
            <path id="Path_2268" data-name="Path 2268" d="M333.25,57.1q-.616-.037-1.232-.069.322,16.831,0,33.662.633-.032,1.266-.071a2.86,2.86,0,0,0,2.61-2.721q.35-14.041-.034-28.087a2.859,2.859,0,0,0-2.61-2.715Z" transform="translate(-315.097 -56.87)" fill="#0e0249"/>
            <path id="Path_2269" data-name="Path 2269" d="M203.561,70.805c1.332-4.336,2.635-8.629,3.851-12.835a2.82,2.82,0,0,0-2.6-2.707q-5.178-.264-10.357-.1a1.361,1.361,0,0,0-1.288,1.338q-.212,14.949-.018,29.9a2.7,2.7,0,0,0,2.575,2.664q4.543.1,9.087-.136a2.82,2.82,0,0,0,2.6-2.708q.058-2.552.1-5.1C206.228,77.733,204.9,74.285,203.561,70.805Z" transform="translate(-187.889 -55.1)" fill="#0e0249"/>
            <path id="Path_2270" data-name="Path 2270" d="M257.845,70.487q-.923-.012-1.845-.012v1.3q.926,0,1.852.011a.629.629,0,0,0,.635-.64A.66.66,0,0,0,257.845,70.487Z" transform="translate(-245.51 -69.174)" fill="#8ef3fb"/>
            <path id="Path_2271" data-name="Path 2271" d="M229.4,71.127a.646.646,0,0,0-.638-.652q-.938,0-1.876.013a.661.661,0,0,0-.641.659.628.628,0,0,0,.635.64q.941-.012,1.882-.012A.642.642,0,0,0,229.4,71.127Z" transform="translate(-218.275 -69.174)" fill="#8ef3fb"/>
            <path id="Path_2272" data-name="Path 2272" d="M237.162,397.339a1.92,1.92,0,1,1-3.84,0,1.92,1.92,0,1,1,3.84,0Z" transform="translate(-224.751 -366.613)" fill="#8ef3fb"/>
            <path id="Path_2273" data-name="Path 2273" d="M235.882,403.264a1.943,1.943,0,0,1-1.923-1.954c0-.054,0-.107.007-.159a1.926,1.926,0,0,0-.643,1.453,1.918,1.918,0,0,0,3.832.159A1.9,1.9,0,0,1,235.882,403.264Z" transform="translate(-224.752 -371.877)" fill="#8ef3fb"/>
            <path id="Path_2274" data-name="Path 2274" d="M155.5,332.562q-3.869-.016-7.738-.12.013,1.276.032,2.553a1.371,1.371,0,0,0,1.308,1.328q1.27.047,2.54.079C152.923,335.141,154.21,333.857,155.5,332.562Z" transform="translate(-146.432 -308.981)" fill="#8ef3fb"/>
            <path id="Path_2275" data-name="Path 2275" d="M193.285,332.523q.012,1.939.03,3.877,6.546.164,13.093-.079a1.371,1.371,0,0,0,1.308-1.328c.033-2.388.031-2.553.032-2.553Q200.517,332.636,193.285,332.523Z" transform="translate(-188.1 -308.98)" fill="#8ef3fb"/>
            <path id="Path_2276" data-name="Path 2276" d="M148.833,71.759a1.412,1.412,0,0,0-1.3,1.353q-.234,10.3-.127,20.591a1.351,1.351,0,0,0,1.308,1.315q1.275.035,2.551.059c1.741-3.442,3.523-6.945,5.3-10.442-1.774-4.364-3.538-8.723-5.214-12.994q-1.255.047-2.511.118Z" transform="translate(-146.068 -70.242)" fill="#8ef3fb"/>
            <path id="Path_2277" data-name="Path 2277" d="M198.381,74.143q-.945,0-1.889.011a1.876,1.876,0,0,1-1.354-.549c0-.006-1.976-1.971-1.972-1.964q-.166,11.718-.083,23.437,6.573.123,13.146-.059a1.351,1.351,0,0,0,1.308-1.315c.043-2.388.036-10.3.022-10.3C204.481,80.353,201.4,77.207,198.381,74.143Z" transform="translate(-187.889 -70.242)" fill="#8ef3fb"/>
            <path id="Path_2278" data-name="Path 2278" d="M265.2,83.395c-.024-4.247-.1-8.306-.149-10.3a1.411,1.411,0,0,0-1.3-1.353q-1.273-.071-2.546-.119-.96.952-1.932,1.925a1.876,1.876,0,0,1-1.392.589q-.928-.01-1.856-.01A9.277,9.277,0,0,0,265.2,83.395Z" transform="translate(-245.526 -70.229)" fill="#8ef3fb"/>
          </g>
          <g id="joystick_1_" data-name="joystick (1)" transform="translate(190.584 2036.203)">
            <g id="Group_97" data-name="Group 97" transform="translate(0 0)">
              <g id="Group_96" data-name="Group 96">
                <path id="Path_2279" data-name="Path 2279" d="M118.6,147.691a2.266,2.266,0,1,0,2.266,2.266A2.266,2.266,0,0,0,118.6,147.691Zm11.33,0a2.266,2.266,0,1,0,2.266,2.266A2.266,2.266,0,0,0,129.928,147.691Zm13.519,3.7-2.311-10.755a7.935,7.935,0,0,0-11.381-5.688,12.585,12.585,0,0,1-4.358,1.337v-3.319a1.134,1.134,0,0,1,1.133-1.133h4.532a3.4,3.4,0,0,0,0-6.8h-13.6a1.134,1.134,0,0,1-1.133-1.133,1.133,1.133,0,0,0-2.266,0,3.4,3.4,0,0,0,3.4,3.4h13.6a1.133,1.133,0,0,1,0,2.266h-4.532a3.4,3.4,0,0,0-3.4,3.4v3.319a12.62,12.62,0,0,1-4.359-1.337,7.933,7.933,0,0,0-11.372,5.648l-2.327,10.835a4.536,4.536,0,0,0,4.462,5.328c1.779,0,2.178-.41,5.81-3.657a4.528,4.528,0,1,1,7.786-3.141H125.4a4.532,4.532,0,1,1,7.786,3.142c3.384,3.034,3.967,3.656,5.81,3.656a4.536,4.536,0,0,0,4.532-4.532,4.6,4.6,0,0,0-.077-.836Zm-25.982-9.36h-1.133v1.133a1.133,1.133,0,0,1-2.266,0v-1.133h-1.133a1.133,1.133,0,1,1,0-2.266h1.133v-1.133a1.133,1.133,0,1,1,2.266,0v1.133h1.133a1.133,1.133,0,0,1,0,2.266Zm4.532,0a1.133,1.133,0,1,1,1.133-1.133A1.133,1.133,0,0,1,122,142.026Zm4.532,0a1.133,1.133,0,1,1,1.133-1.133A1.133,1.133,0,0,1,126.529,142.026Zm9.064,0H134.46v1.133a1.133,1.133,0,0,1-2.266,0v-1.133h-1.133a1.133,1.133,0,1,1,0-2.266h1.133v-1.133a1.133,1.133,0,1,1,2.266,0v1.133h1.133a1.133,1.133,0,0,1,0,2.266Z" transform="translate(-105.002 -122.765)" fill="#17075e"/>
              </g>
            </g>
          </g>
        </g>
        <g id="cloud-computing_1_" data-name="cloud-computing (1)" transform="translate(429.384 1842.479)">
          <g id="Group_100" data-name="Group 100" transform="translate(1.739 1.739)">
            <path id="Path_2314" data-name="Path 2314" d="M84.431,34.5c-.8-7.889-7.909-14.069-16.011-14.069-.119,0-.23.033-.349.035a19.1,19.1,0,0,0-34.076,0c-.119,0-.23-.035-.349-.035-6.722,0-12.692,5.449-12.692,12.171a12.085,12.085,0,0,0,.191,1.895C15.162,35.265,10,40.321,10,46.512c0,6.722,5.971,12.171,12.692,12.171H82.851c6.722,0,12.692-5.449,12.692-12.171C95.543,40.332,90.4,35.282,84.431,34.5Z" transform="translate(-10 -10)" fill="#ff95df"/>
            <g id="Group_99" data-name="Group 99" transform="translate(8.059 64.539)">
              <ellipse id="Ellipse_14" data-name="Ellipse 14" cx="5.187" cy="5.331" rx="5.187" ry="5.331" transform="translate(0 0)" fill="#ff95df"/>
              <ellipse id="Ellipse_15" data-name="Ellipse 15" cx="5.187" cy="5.331" rx="5.187" ry="5.331" transform="translate(59.073 0)" fill="#ff95df"/>
              <ellipse id="Ellipse_16" data-name="Ellipse 16" cx="5.331" cy="5.187" rx="5.331" ry="5.187" transform="translate(29.392 10.662)" fill="#ff95df"/>
            </g>
          </g>
          <g id="Group_102" data-name="Group 102" transform="translate(0 0)">
            <g id="Group_101" data-name="Group 101">
              <path id="Path_2315" data-name="Path 2315" d="M14.431,52.161H32.34v16A1.741,1.741,0,0,1,30.6,69.9H21.687a6.955,6.955,0,1,0,0,3.477H30.6a5.222,5.222,0,0,0,5.216-5.216v-16h6.955V75.331a6.955,6.955,0,1,0,3.477,0V52.161H53.2v16a5.222,5.222,0,0,0,5.216,5.216h8.914a6.955,6.955,0,1,0,0-3.477H58.42a1.741,1.741,0,0,1-1.739-1.739v-16H74.59c7.822,0,14.431-6.37,14.431-13.91,0-6.509-4.977-12.069-11.309-13.5a17.865,17.865,0,0,0-16.88-14.305,20.836,20.836,0,0,0-36.122,0c-7.523.354-13.756,6.572-13.756,13.894,0,.166,0,.329.014.49C4.7,26.407,0,32.009,0,38.251c0,7.54,6.609,13.91,14.431,13.91Zm.522,22.951a3.477,3.477,0,1,1,3.477-3.477A3.481,3.481,0,0,1,14.953,75.111Zm33.035,6.955a3.477,3.477,0,1,1-3.477-3.477A3.481,3.481,0,0,1,47.988,82.066Zm26.08-13.91a3.477,3.477,0,1,1-3.477,3.477A3.481,3.481,0,0,1,74.068,68.157ZM13.1,27.961a1.739,1.739,0,0,0,1.5-1.995,10.5,10.5,0,0,1-.17-1.624c0-5.635,4.981-10.4,10.891-10.432A1.774,1.774,0,0,0,27.283,13,17.361,17.361,0,0,1,58.26,13a1.771,1.771,0,0,0,1.963.915A14.3,14.3,0,0,1,74.44,26.416a1.738,1.738,0,0,0,1.5,1.548c5.383.705,9.6,5.224,9.6,10.288,0,5.655-5.016,10.432-10.954,10.432H14.431c-5.937,0-10.954-4.777-10.954-10.432,0-5.077,4.229-9.6,9.627-10.29Z" transform="translate(0 0)" fill="#0e0249"/>
            </g>
          </g>
        </g>
        <g id="monitor-screen" transform="translate(697.466 1825.67)">
          <path id="Path_2316" data-name="Path 2316" d="M187.631,342.687h-42.1l6.025-18.588h30.049Z" transform="translate(-103.595 -240.77)" fill="#0e0249"/>
          <path id="Path_2317" data-name="Path 2317" d="M174.384,383.057h-48a3.609,3.609,0,0,0-3.609,3.609v1.9h55.223v-1.9A3.61,3.61,0,0,0,174.384,383.057Z" transform="translate(-87.393 -282.739)" fill="#1a0c60"/>
          <path id="Path_2318" data-name="Path 2318" d="M125.959,39.971V120.2a4.8,4.8,0,0,1-4.78,4.816H4.816A4.81,4.81,0,0,1,0,120.214V39.971a5.04,5.04,0,0,1,5.034-5.046H120.911a5.04,5.04,0,0,1,5.047,5.032S125.959,39.966,125.959,39.971Z" transform="translate(0 -34.925)" fill="#0e0249"/>
          <path id="Path_2319" data-name="Path 2319" d="M18.093,54.007H133.638v67.157H18.093Z" transform="translate(-12.879 -48.508)" fill="#d2f6f9"/>
          <ellipse id="Ellipse_17" data-name="Ellipse 17" cx="3.198" cy="3.198" rx="3.198" ry="3.198" transform="translate(59.788 78.176)" fill="#d2f6f9"/>
          <g id="logo" transform="translate(43.784 21.188)">
            <g id="Group_424" data-name="Group 424" transform="translate(0 0)">
              <g id="bill_2_" data-name="bill (2)" transform="translate(0 0)">
                <path id="Path_977" data-name="Path 977" d="M36.993,44.381H61.729a2.935,2.935,0,0,0,2.934-2.935V10h0l-2.474,2.474L59.717,10l-2.474,2.474L54.77,10,52.3,12.474,49.822,10l-2.474,2.474L44.875,10,42.4,12.474,39.928,10V27.191" transform="translate(-33.354 -9.302)" fill="#07bbc8"/>
                <path id="Path_978" data-name="Path 978" d="M393.932,273.191h0a2.935,2.935,0,0,0,2.935-2.935V256H391v14.256A2.935,2.935,0,0,0,393.932,273.191Z" transform="translate(-390.294 -238.111)" fill="#0599a4"/>
                <path id="Path_979" data-name="Path 979" d="M27.7,17.19h5.172V.7A.7.7,0,0,1,34.067.2l1.98,1.979L38.027.2a.7.7,0,0,1,.989,0l1.98,1.98L42.974.2a.7.7,0,0,1,.989,0l1.979,1.98L47.922.2a.7.7,0,0,1,.989,0l1.98,1.98L52.869.2a.7.7,0,0,1,.989,0l1.98,1.98L57.816.2a.7.7,0,0,1,1.192.513V32.145a3.638,3.638,0,0,1-3.634,3.634H30.638A3.638,3.638,0,0,1,27,32.145V17.888a.7.7,0,0,1,.7-.7ZM57.61,32.143V2.386L56.33,3.666a.7.7,0,0,1-.989,0l-1.979-1.98-1.98,1.98a.7.7,0,0,1-.989,0l-1.98-1.98L46.44,3.666a.7.7,0,0,1-.989,0l-1.983-1.98-1.98,1.98a.7.7,0,0,1-.989,0l-1.979-1.98-1.98,1.98a.7.7,0,0,1-.989,0L34.272,2.385V32.144A3.615,3.615,0,0,1,33.5,34.38H55.374a2.243,2.243,0,0,0,2.236-2.236Zm-29.209,0a2.243,2.243,0,0,0,2.236,2.236h0a2.243,2.243,0,0,0,2.236-2.236V18.588H28.4V32.144Z" transform="translate(-27 0.001)" fill="#25647e"/>
              </g>
              <path id="Path_980" data-name="Path 980" d="M9.691,3.532H7.7L.059-17.168H4.047l4.724,13.8,4.99-13.8h3.9Z" transform="translate(10.721 25.294)" fill="#fff"/>
            </g>
          </g>
        </g>
        <g id="Group_105" data-name="Group 105" transform="translate(60.003 19.237)">
          <g id="calendar_3_" data-name="calendar (3)" transform="translate(536.24 1992.797)">
            <path id="Path_2280" data-name="Path 2280" d="M81.128,53.767v9.669H25V53.767A3.768,3.768,0,0,1,28.767,50H77.361a3.768,3.768,0,0,1,3.767,3.767Z" transform="translate(-25 -43.722)" fill="#fd646f"/>
            <path id="Path_2283" data-name="Path 2283" d="M27.009,53.47v13H25V56.8A3.762,3.762,0,0,1,27.009,53.47Z" transform="translate(-25 -46.756)" fill="#fc4755"/>
            <g id="Group_98" data-name="Group 98" transform="translate(9.669 27.225)">
              <path id="Path_2284" data-name="Path 2284" d="M102.628,216.82h6.46a.628.628,0,0,1,.628.628v6.46a.628.628,0,0,1-.628.628h-6.46a.628.628,0,0,1-.628-.628v-6.46A.628.628,0,0,1,102.628,216.82Z" transform="translate(-102 -216.82)" fill="#e6e6e6"/>
              <path id="Path_2285" data-name="Path 2285" d="M102.628,293.27h6.46a.628.628,0,0,1,.628.628v6.462a.628.628,0,0,1-.628.628h-6.46a.628.628,0,0,1-.628-.628V293.9A.628.628,0,0,1,102.628,293.27Z" transform="translate(-102 -283.67)" fill="#e6e6e6"/>
              <path id="Path_2286" data-name="Path 2286" d="M102.628,369.73h6.46a.628.628,0,0,1,.628.628v6.46a.628.628,0,0,1-.628.628h-6.46a.628.628,0,0,1-.628-.628v-6.46A.628.628,0,0,1,102.628,369.73Z" transform="translate(-102 -350.53)" fill="#e6e6e6"/>
              <path id="Path_2287" data-name="Path 2287" d="M179.078,216.82h6.6a.628.628,0,0,1,.628.628v6.46a.628.628,0,0,1-.628.628h-6.6a.628.628,0,0,1-.628-.628v-6.46A.628.628,0,0,1,179.078,216.82Z" transform="translate(-168.85 -216.82)" fill="#e6e6e6"/>
              <path id="Path_2288" data-name="Path 2288" d="M179.078,293.27h6.6a.628.628,0,0,1,.628.628v6.462a.628.628,0,0,1-.628.628h-6.6a.628.628,0,0,1-.628-.628V293.9A.628.628,0,0,1,179.078,293.27Z" transform="translate(-168.85 -283.67)" fill="#e6e6e6"/>
              <path id="Path_2289" data-name="Path 2289" d="M179.078,369.73h6.6a.628.628,0,0,1,.628.628v6.46a.628.628,0,0,1-.628.628h-6.6a.628.628,0,0,1-.628-.628v-6.46A.628.628,0,0,1,179.078,369.73Z" transform="translate(-168.85 -350.53)" fill="#e6e6e6"/>
              <path id="Path_2290" data-name="Path 2290" d="M256.628,216.82h6.6a.628.628,0,0,1,.628.628v6.46a.628.628,0,0,1-.628.628h-6.6a.628.628,0,0,1-.628-.628v-6.46A.628.628,0,0,1,256.628,216.82Z" transform="translate(-236.663 -216.82)" fill="#e6e6e6"/>
              <path id="Path_2291" data-name="Path 2291" d="M256.628,293.27h6.6a.628.628,0,0,1,.628.628v6.462a.628.628,0,0,1-.628.628h-6.6a.628.628,0,0,1-.628-.628V293.9A.628.628,0,0,1,256.628,293.27Z" transform="translate(-236.663 -283.67)" fill="#e6e6e6"/>
              <path id="Path_2292" data-name="Path 2292" d="M256.628,369.73h6.6a.628.628,0,0,1,.628.628v6.46a.628.628,0,0,1-.628.628h-6.6a.628.628,0,0,1-.628-.628v-6.46A.628.628,0,0,1,256.628,369.73Z" transform="translate(-236.663 -350.53)" fill="#e6e6e6"/>
              <path id="Path_2293" data-name="Path 2293" d="M341.266,217.448v6.46a.628.628,0,0,1-.628.628h-6.46a.628.628,0,0,1-.628-.628v-6.46a.628.628,0,0,1,.628-.628h6.46A.628.628,0,0,1,341.266,217.448Z" transform="translate(-304.475 -216.82)" fill="#e6e6e6"/>
              <path id="Path_2294" data-name="Path 2294" d="M334.178,293.27h6.46a.628.628,0,0,1,.628.628v6.462a.628.628,0,0,1-.628.628h-6.46a.628.628,0,0,1-.628-.628V293.9A.628.628,0,0,1,334.178,293.27Z" transform="translate(-304.475 -283.67)" fill="#e6e6e6"/>
              <path id="Path_2295" data-name="Path 2295" d="M334.178,369.73h6.46a.628.628,0,0,1,.628.628v6.46a.628.628,0,0,1-.628.628h-6.46a.628.628,0,0,1-.628-.628v-6.46A.628.628,0,0,1,334.178,369.73Z" transform="translate(-304.475 -350.53)" fill="#e6e6e6"/>
            </g>
            <path id="Path_2296" data-name="Path 2296" d="M25,150v39.8a3.767,3.767,0,0,0,3.767,3.767H77.361a3.767,3.767,0,0,0,3.767-3.767V150Z" transform="translate(-25 -131.165)" fill="#f5e2a0"/>
            <path id="Path_2297" data-name="Path 2297" d="M101.278,1.256V11.3a1.256,1.256,0,0,1-1.256,1.256H96.256A1.256,1.256,0,0,1,95,11.3V1.256A1.256,1.256,0,0,1,96.256,0h3.767A1.256,1.256,0,0,1,101.278,1.256Z" transform="translate(-86.21)" fill="#8db5cf"/>
            <path id="Path_2298" data-name="Path 2298" d="M102,216.82h7.716v7.716H102Z" transform="translate(-92.331 -189.595)" fill="#ffac5c"/>
            <path id="Path_2299" data-name="Path 2299" d="M333.55,216.82h7.716v7.716H333.55Z" transform="translate(-294.806 -189.595)" fill="#ffac5c"/>
            <path id="Path_2300" data-name="Path 2300" d="M178.45,216.82H186.3v7.716H178.45Z" transform="translate(-159.182 -189.595)" fill="#ffac5c"/>
            <path id="Path_2301" data-name="Path 2301" d="M102,293.27h7.716v7.717H102Z" transform="translate(-92.331 -256.445)" fill="#ffac5c"/>
            <path id="Path_2302" data-name="Path 2302" d="M333.55,293.27h7.716v7.717H333.55Z" transform="translate(-294.806 -256.445)" fill="#fffcfc"/>
            <path id="Path_2303" data-name="Path 2303" d="M178.45,293.27H186.3v7.717H178.45Z" transform="translate(-159.182 -256.445)" fill="#ffac5c"/>
            <path id="Path_2304" data-name="Path 2304" d="M102,369.73h7.716v7.716H102Z" transform="translate(-92.331 -323.304)" fill="#fffcfc"/>
            <path id="Path_2305" data-name="Path 2305" d="M333.55,369.73h7.716v7.716H333.55Z" transform="translate(-294.806 -323.304)" fill="#fffcfc"/>
            <path id="Path_2306" data-name="Path 2306" d="M178.45,369.73H186.3v7.716H178.45Z" transform="translate(-159.182 -323.304)" fill="#fffcfc"/>
            <path id="Path_2307" data-name="Path 2307" d="M256,216.82h7.854v7.716H256Z" transform="translate(-226.994 -189.595)" fill="#ffac5c"/>
            <path id="Path_2308" data-name="Path 2308" d="M256,293.27h7.854v7.717H256Z" transform="translate(-226.994 -256.445)" fill="#ffac5c"/>
            <path id="Path_2309" data-name="Path 2309" d="M256,369.73h7.854v7.716H256Z" transform="translate(-226.994 -323.304)" fill="#fffcfc"/>
            <path id="Path_2310" data-name="Path 2310" d="M358.278,1.256V11.3a1.256,1.256,0,0,1-1.256,1.256h-3.767A1.256,1.256,0,0,1,352,11.3V1.256A1.256,1.256,0,0,1,353.256,0h3.767A1.256,1.256,0,0,1,358.278,1.256Z" transform="translate(-310.94)" fill="#8db5cf"/>
          </g>
          <g id="refresh_1_" data-name="refresh (1)" transform="translate(548.983 2017)">
            <path id="Path_2320" data-name="Path 2320" d="M155.163,6.7V0L142.982,12.181l12.181,12.181V17.645c14.246-1.189,23.44,8.286,25.758,20.743C182.422,20.3,170.805,9.6,155.163,6.7Z" transform="translate(-127.892)" fill="#9e9e9e"/>
            <path id="Path_2321" data-name="Path 2321" d="M26.42,168.292v6.773l12.309-12.309L26.42,150.448v6.786c-11.432.954-23.013-4.754-26.031-20.962C-1.131,154.6,10.665,165.376,26.42,168.292Z" transform="translate(0 -122.109)" fill="#17075e"/>
          </g>
        </g>
        <g id="Group_107" data-name="Group 107">
          <path id="Path_2323" data-name="Path 2323" d="M263.98,1751.062H348.8v333.825H272.7" fill="none" stroke="#0e0249" stroke-width="1.5" stroke-dasharray="10 10"/>
          <path id="Path_2324" data-name="Path 2324" d="M263.98,1856.58l85.566.031" fill="none" stroke="#0e0249" stroke-width="1.5" stroke-dasharray="10"/>
          <path id="Path_2326" data-name="Path 2326" d="M263.98,1856.58l79.838.031" transform="translate(85.566 15)" fill="none" stroke="#0e0249" stroke-width="1.5" stroke-dasharray="10"/>
          <path id="Path_2327" data-name="Path 2327" d="M263.98,1856.58l172.3.031" transform="translate(261.187 15.031)" fill="none" stroke="#0e0249" stroke-width="1.5" stroke-dasharray="10"/>
          <path id="Path_2328" data-name="Path 2328" d="M263.98,1856.58l147.066.031" transform="translate(2485.775 1606.918) rotate(90)" fill="none" stroke="#0e0249" stroke-width="1.5" stroke-dasharray="10"/>
          <path id="Path_2325" data-name="Path 2325" d="M263.98,1856.58l85.566.031" transform="translate(0 119)" fill="none" stroke="#0e0249" stroke-width="1.5" stroke-dasharray="10"/>
          <path id="Polygon_2" data-name="Polygon 2" d="M7,0l7,12H0Z" transform="translate(697 1865) rotate(90)" fill="#0e0249"/>
        </g>
        <text id="Data_Lake" data-name="Data Lake" transform="translate(429 1833)" fill="#0e0249" font-size="22" font-family="CircularStd-Bold, Circular Std Bold" font-weight="700" letter-spacing="0.008em" opacity="0.7"><tspan x="0" y="0">Data Lake</tspan></text>
        <text id="Subscriptions_Recurring" data-name="Subscriptions Recurring" transform="translate(572 2097)" fill="#0e0249" font-size="22" font-family="CircularStd-Bold, Circular Std Bold" font-weight="700" letter-spacing="0.008em" opacity="0.7"><tspan x="3.017" y="18">Subscriptions </tspan><tspan x="23.4" y="48">Recurring</tspan></text>
      </g>
    </g>
  </g>
</svg>
