<svg xmlns="http://www.w3.org/2000/svg" width="519.312" height="509.052" viewBox="0 0 519.312 509.052">
  <g id="Group_155" data-name="Group 155" transform="translate(-1233.688 -3460.548)">
    <g id="clipboard_1_" data-name="clipboard (1)" transform="translate(1186.146 3460.548)">
      <g id="Group_116" data-name="Group 116" transform="translate(47.543 16.347)">
        <path id="Path_2333" data-name="Path 2333" d="M128.691,58.515H56.884a9.487,9.487,0,0,0-9.341,8.9v83.629c0,4.816,4.524,8.173,9.341,8.173h71.807c4.816,0,9.341-3.357,9.341-8.173V67.418A9.487,9.487,0,0,0,128.691,58.515Z" transform="translate(-47.543 -58.515)" fill="#e1edff"/>
        <g id="Group_115" data-name="Group 115" transform="translate(11.704 22.296)">
          <path id="Path_2334" data-name="Path 2334" d="M98.315,238.591a2.627,2.627,0,0,1-2.043-.876l-5.984-6.13a3.065,3.065,0,0,1,0-4.233,2.919,2.919,0,0,1,4.087.146l3.941,4.087,9.341-8.9a2.919,2.919,0,0,1,4.087.146,3.065,3.065,0,0,1,0,4.233l-11.384,10.654A2.921,2.921,0,0,1,98.315,238.591Z" transform="translate(-89.44 -198.567)" fill="#07bbc8"/>
          <path id="Path_2335" data-name="Path 2335" d="M225.092,253.48H191.524a2.919,2.919,0,0,1,0-5.838h33.568a2.919,2.919,0,1,1,0,5.838Z" transform="translate(-160.902 -217.104)" fill="#17075e"/>
          <path id="Path_2336" data-name="Path 2336" d="M98.315,155a2.627,2.627,0,0,1-2.043-.876l-5.984-6.13a3.065,3.065,0,0,1,0-4.233,2.919,2.919,0,0,1,4.087.146l3.941,4.087,9.341-8.9a2.919,2.919,0,0,1,4.087.146,3.065,3.065,0,0,1,0,4.233l-11.384,10.654A2.921,2.921,0,0,1,98.315,155Z" transform="translate(-89.44 -138.327)" fill="#07bbc8"/>
          <path id="Path_2337" data-name="Path 2337" d="M225.092,169.888H191.524a2.919,2.919,0,0,1,0-5.838h33.568a2.919,2.919,0,1,1,0,5.838Z" transform="translate(-160.902 -156.864)" fill="#17075e"/>
          <path id="Path_2338" data-name="Path 2338" d="M98.315,322.183a2.627,2.627,0,0,1-2.043-.876l-5.984-6.13a3.065,3.065,0,0,1,0-4.233,2.919,2.919,0,0,1,4.087.146l3.941,4.087,9.341-8.9a2.919,2.919,0,0,1,4.087.146,3.065,3.065,0,0,1,0,4.233l-11.384,10.654A2.922,2.922,0,0,1,98.315,322.183Z" transform="translate(-89.44 -258.807)" fill="#07bbc8"/>
          <path id="Path_2339" data-name="Path 2339" d="M225.092,337.072H191.524a2.919,2.919,0,1,1,0-5.838h33.568a2.919,2.919,0,1,1,0,5.838Z" transform="translate(-160.902 -277.344)" fill="#17075e"/>
        </g>
      </g>
      <path id="Path_2340" data-name="Path 2340" d="M175.235,16.785V27H132.18V8.757h10.654A11.092,11.092,0,0,1,153.635,0a10.946,10.946,0,0,1,10.8,8.757h10.8v8.027Z" transform="translate(-60.993)" fill="#07bbc8"/>
    </g>
    <g id="clipboard_1_2" data-name="clipboard (1)" transform="translate(1186.146 3656.548)">
      <g id="Group_116-2" data-name="Group 116" transform="translate(47.543 16.347)">
        <path id="Path_2333-2" data-name="Path 2333" d="M128.691,58.515H56.884a9.487,9.487,0,0,0-9.341,8.9v83.629c0,4.816,4.524,8.173,9.341,8.173h71.807c4.816,0,9.341-3.357,9.341-8.173V67.418A9.487,9.487,0,0,0,128.691,58.515Z" transform="translate(-47.543 -58.515)" fill="#e1edff"/>
        <g id="Group_115-2" data-name="Group 115" transform="translate(11.704 22.296)">
          <path id="Path_2334-2" data-name="Path 2334" d="M98.315,238.591a2.627,2.627,0,0,1-2.043-.876l-5.984-6.13a3.065,3.065,0,0,1,0-4.233,2.919,2.919,0,0,1,4.087.146l3.941,4.087,9.341-8.9a2.919,2.919,0,0,1,4.087.146,3.065,3.065,0,0,1,0,4.233l-11.384,10.654A2.921,2.921,0,0,1,98.315,238.591Z" transform="translate(-89.44 -198.567)" fill="#feda5b"/>
          <path id="Path_2335-2" data-name="Path 2335" d="M225.092,253.48H191.524a2.919,2.919,0,0,1,0-5.838h33.568a2.919,2.919,0,1,1,0,5.838Z" transform="translate(-160.902 -217.104)" fill="#17075e"/>
          <path id="Path_2336-2" data-name="Path 2336" d="M98.315,155a2.627,2.627,0,0,1-2.043-.876l-5.984-6.13a3.065,3.065,0,0,1,0-4.233,2.919,2.919,0,0,1,4.087.146l3.941,4.087,9.341-8.9a2.919,2.919,0,0,1,4.087.146,3.065,3.065,0,0,1,0,4.233l-11.384,10.654A2.921,2.921,0,0,1,98.315,155Z" transform="translate(-89.44 -138.327)" fill="#feda5b"/>
          <path id="Path_2337-2" data-name="Path 2337" d="M225.092,169.888H191.524a2.919,2.919,0,0,1,0-5.838h33.568a2.919,2.919,0,1,1,0,5.838Z" transform="translate(-160.902 -156.864)" fill="#17075e"/>
          <path id="Path_2338-2" data-name="Path 2338" d="M98.315,322.183a2.627,2.627,0,0,1-2.043-.876l-5.984-6.13a3.065,3.065,0,0,1,0-4.233,2.919,2.919,0,0,1,4.087.146l3.941,4.087,9.341-8.9a2.919,2.919,0,0,1,4.087.146,3.065,3.065,0,0,1,0,4.233l-11.384,10.654A2.922,2.922,0,0,1,98.315,322.183Z" transform="translate(-89.44 -258.807)" fill="#feda5b"/>
          <path id="Path_2339-2" data-name="Path 2339" d="M225.092,337.072H191.524a2.919,2.919,0,1,1,0-5.838h33.568a2.919,2.919,0,1,1,0,5.838Z" transform="translate(-160.902 -277.344)" fill="#17075e"/>
        </g>
      </g>
      <path id="Path_2340-2" data-name="Path 2340" d="M175.235,16.785V27H132.18V8.757h10.654A11.092,11.092,0,0,1,153.635,0a10.946,10.946,0,0,1,10.8,8.757h10.8v8.027Z" transform="translate(-60.993)" fill="#feda5b"/>
    </g>
    <g id="clipboard_1_3" data-name="clipboard (1)" transform="translate(1186.146 3852.548)">
      <g id="Group_116-3" data-name="Group 116" transform="translate(47.543 16.347)">
        <path id="Path_2333-3" data-name="Path 2333" d="M128.691,58.515H56.884a9.487,9.487,0,0,0-9.341,8.9v83.629c0,4.816,4.524,8.173,9.341,8.173h71.807c4.816,0,9.341-3.357,9.341-8.173V67.418A9.487,9.487,0,0,0,128.691,58.515Z" transform="translate(-47.543 -58.515)" fill="#e1edff"/>
        <g id="Group_115-3" data-name="Group 115" transform="translate(11.704 22.296)">
          <path id="Path_2334-3" data-name="Path 2334" d="M98.315,238.591a2.627,2.627,0,0,1-2.043-.876l-5.984-6.13a3.065,3.065,0,0,1,0-4.233,2.919,2.919,0,0,1,4.087.146l3.941,4.087,9.341-8.9a2.919,2.919,0,0,1,4.087.146,3.065,3.065,0,0,1,0,4.233l-11.384,10.654A2.921,2.921,0,0,1,98.315,238.591Z" transform="translate(-89.44 -198.567)" fill="#f97eac"/>
          <path id="Path_2335-3" data-name="Path 2335" d="M225.092,253.48H191.524a2.919,2.919,0,0,1,0-5.838h33.568a2.919,2.919,0,1,1,0,5.838Z" transform="translate(-160.902 -217.104)" fill="#17075e"/>
          <path id="Path_2336-3" data-name="Path 2336" d="M98.315,155a2.627,2.627,0,0,1-2.043-.876l-5.984-6.13a3.065,3.065,0,0,1,0-4.233,2.919,2.919,0,0,1,4.087.146l3.941,4.087,9.341-8.9a2.919,2.919,0,0,1,4.087.146,3.065,3.065,0,0,1,0,4.233l-11.384,10.654A2.921,2.921,0,0,1,98.315,155Z" transform="translate(-89.44 -138.327)" fill="#f97eac"/>
          <path id="Path_2337-3" data-name="Path 2337" d="M225.092,169.888H191.524a2.919,2.919,0,0,1,0-5.838h33.568a2.919,2.919,0,1,1,0,5.838Z" transform="translate(-160.902 -156.864)" fill="#17075e"/>
          <path id="Path_2338-3" data-name="Path 2338" d="M98.315,322.183a2.627,2.627,0,0,1-2.043-.876l-5.984-6.13a3.065,3.065,0,0,1,0-4.233,2.919,2.919,0,0,1,4.087.146l3.941,4.087,9.341-8.9a2.919,2.919,0,0,1,4.087.146,3.065,3.065,0,0,1,0,4.233l-11.384,10.654A2.922,2.922,0,0,1,98.315,322.183Z" transform="translate(-89.44 -258.807)" fill="#f97eac"/>
          <path id="Path_2339-3" data-name="Path 2339" d="M225.092,337.072H191.524a2.919,2.919,0,1,1,0-5.838h33.568a2.919,2.919,0,1,1,0,5.838Z" transform="translate(-160.902 -277.344)" fill="#17075e"/>
        </g>
      </g>
      <path id="Path_2340-3" data-name="Path 2340" d="M175.235,16.785V27H132.18V8.757h10.654A11.092,11.092,0,0,1,153.635,0a10.946,10.946,0,0,1,10.8,8.757h10.8v8.027Z" transform="translate(-60.993)" fill="#f97eac"/>
    </g>
    <g id="bill" transform="translate(1635.225 3662.284)">
      <path id="Path_2341" data-name="Path 2341" d="M298.173,8.39A23.532,23.532,0,1,1,275.6,25.2,23.532,23.532,0,0,1,298.173,8.39Zm0,0" transform="translate(-213.371 -6.217)" fill="#00efd1"/>
      <path id="Path_2342" data-name="Path 2342" d="M138.173,155.906v.024a12.218,12.218,0,0,1-12.217,12.207h-.038c-.281,0-.562-.011-.839-.029a12.219,12.219,0,0,1-11.368-12.2V148H72.761V147.9l.432-64.166h45.538l.033.011a23.564,23.564,0,0,0,19.409,30.07ZM89.848,106.222a3.75,3.75,0,1,0-3.928-3.745A3.838,3.838,0,0,0,89.848,106.222Zm0,15.511a3.75,3.75,0,1,0-3.928-3.747A3.839,3.839,0,0,0,89.848,121.732Zm0,15.507a3.749,3.749,0,1,0-3.928-3.745A3.837,3.837,0,0,0,89.848,137.24Zm0,0" transform="translate(-56.532 -64.754)" fill="#fedb41"/>
      <path id="Path_2343" data-name="Path 2343" d="M74.925,392.007l0,.029h-54.5A12.218,12.218,0,0,1,8.211,379.829V371.9H63.557v7.9a12.219,12.219,0,0,0,11.368,12.2Zm0,0" transform="translate(-6.379 -288.653)" fill="#00acea"/>
      <path id="Path_2344" data-name="Path 2344" d="M139.614,154.727a3.931,3.931,0,1,1-3.925-3.747A3.838,3.838,0,0,1,139.614,154.727Zm0,0" transform="translate(-102.374 -117.004)" fill="#00efd1"/>
      <path id="Path_2345" data-name="Path 2345" d="M139.614,224.268a3.931,3.931,0,1,1-3.925-3.745A3.839,3.839,0,0,1,139.614,224.268Zm0,0" transform="translate(-102.374 -171.037)" fill="#00efd1"/>
      <path id="Path_2346" data-name="Path 2346" d="M139.614,293.807a3.931,3.931,0,1,1-3.925-3.745A3.837,3.837,0,0,1,139.614,293.807Zm0,0" transform="translate(-102.374 -225.066)" fill="#00efd1"/>
      <g id="Group_117" data-name="Group 117" transform="translate(0 0.388)">
        <path id="Path_2347" data-name="Path 2347" d="M353.222,46.184l.044,0a1.689,1.689,0,0,0,.2-.012,3.991,3.991,0,0,1,3.955,3.984,1.784,1.784,0,1,0,3.569,0,7.566,7.566,0,0,0-5.937-7.378V41.066a1.784,1.784,0,0,0-3.569,0v1.793a7.556,7.556,0,0,0,1.952,14.855,3.985,3.985,0,1,1-3.986,3.986,1.784,1.784,0,0,0-3.569,0,7.567,7.567,0,0,0,5.6,7.3v1.956a1.784,1.784,0,1,0,3.569,0V69.077a7.553,7.553,0,0,0-1.617-14.932,3.983,3.983,0,0,1-.213-7.96Zm0,0" transform="translate(-268.735 -30.607)" fill="#083863"/>
        <path id="Path_2348" data-name="Path 2348" d="M84.8.389A25.063,25.063,0,0,0,69.526,5.461a26.165,26.165,0,0,0-8.577,11.631H16.661a1.866,1.866,0,0,0-1.784,1.865L14.456,81.55H1.832A1.755,1.755,0,0,0,0,83.25v7.928a14.074,14.074,0,0,0,13.382,13.974v.04h55.09v-.051c.446.017.646.051.912.051h.038A14.03,14.03,0,0,0,83.416,91.176V51.014c.446.024.922.04,1.381.04A25.333,25.333,0,0,0,84.8.389ZM3.569,91.176V85.119H55.314V91.15a14.3,14.3,0,0,0,4.762,10.473H14.049A10.505,10.505,0,0,1,3.569,91.176Zm65.84,10.447h-.024c-.223,0-.5-.02-.756-.037a10.509,10.509,0,0,1-9.747-10.435v-7.9a1.647,1.647,0,0,0-1.7-1.7H18.024l.409-60.889H59.96a27.7,27.7,0,0,0-.491,5.066A26.4,26.4,0,0,0,61.635,36.05H44.768a1.784,1.784,0,0,0,0,3.569h18.8a25.067,25.067,0,0,0,16.275,10.95V91.175a10.46,10.46,0,0,1-10.438,10.449ZM84.8,47.486a21.684,21.684,0,0,1-2.92-.2h0a21.772,21.772,0,1,1,2.923.2Zm0,0" transform="translate(0 -0.388)" fill="#083863"/>
        <path id="Path_2349" data-name="Path 2349" d="M129.473,212.523a5.533,5.533,0,1,0,5.709,5.529A5.629,5.629,0,0,0,129.473,212.523Zm0,7.492a1.969,1.969,0,1,1,2.141-1.963A2.061,2.061,0,0,1,129.473,220.015Zm0,0" transform="translate(-96.158 -165.209)" fill="#083863"/>
        <path id="Path_2350" data-name="Path 2350" d="M218.291,229.281H194.5a1.784,1.784,0,0,0,0,3.569h23.787a1.784,1.784,0,0,0,0-3.569Zm0,0" transform="translate(-149.736 -178.23)" fill="#083863"/>
        <path id="Path_2351" data-name="Path 2351" d="M129.473,142.98a5.533,5.533,0,1,0,5.709,5.532A5.63,5.63,0,0,0,129.473,142.98Zm0,7.492a1.969,1.969,0,1,1,2.141-1.96A2.06,2.06,0,0,1,129.473,150.472Zm0,0" transform="translate(-96.158 -111.177)" fill="#083863"/>
        <path id="Path_2352" data-name="Path 2352" d="M129.473,282.063a5.532,5.532,0,1,0,5.709,5.529A5.629,5.629,0,0,0,129.473,282.063Zm0,7.489a1.968,1.968,0,1,1,2.141-1.96A2.06,2.06,0,0,1,129.473,289.552Zm0,0" transform="translate(-96.158 -219.239)" fill="#083863"/>
        <path id="Path_2353" data-name="Path 2353" d="M218.291,299.281H194.5a1.784,1.784,0,1,0,0,3.569h23.787a1.784,1.784,0,1,0,0-3.569Zm0,0" transform="translate(-149.736 -232.617)" fill="#083863"/>
      </g>
    </g>
    <path id="Path_2354" data-name="Path 2354" d="M1346.667,3519.074h150.667v407.594H1346.667" fill="none" stroke="#0e0249" stroke-width="1.5" stroke-dasharray="10 10"/>
    <path id="Path_2355" data-name="Path 2355" d="M1346.667,3717.048h293.657" transform="translate(2 1)" fill="none" stroke="#0e0249" stroke-width="1.5" stroke-dasharray="10"/>
    <text id="Group_Invoice" data-name="Group Invoice" transform="translate(1673 3803)" fill="#0e0249" font-size="24" font-family="CircularStd-Bold, Circular Std Bold" font-weight="700" letter-spacing="0.008em" opacity="0.89"><tspan x="-79.884" y="0">Group Invoice</tspan></text>
  </g>
</svg>
