<svg xmlns="http://www.w3.org/2000/svg" width="56.45" height="55.942" viewBox="0 0 56.45 55.942">
  <g id="Group_47" data-name="Group 47" transform="translate(-73.595 -1644.029)">
    <path id="Path_1120" data-name="Path 1120" d="M629.8,225.62l-13.313-7.686a5.6,5.6,0,0,0-5.6,0l-13.313,7.686a5.6,5.6,0,0,0-2.8,4.85v15.373a5.6,5.6,0,0,0,2.8,4.85l13.313,7.686a5.6,5.6,0,0,0,5.6,0l13.313-7.686a5.6,5.6,0,0,0,2.8-4.85V230.47A5.6,5.6,0,0,0,629.8,225.62Z" transform="translate(-110.211 1048.806) rotate(50)" fill="#ffc701"/>
    <text id="_3" data-name="3" transform="translate(94.32 1681)" fill="#fff" font-size="28" font-family="CircularStd-Bold, Circular Std Bold" font-weight="700" letter-spacing="0.008em"><tspan x="0" y="0">3</tspan></text>
  </g>
</svg>
