<svg xmlns="http://www.w3.org/2000/svg" width="390.775" height="394.027" viewBox="0 0 390.775 394.027">
  <g id="Group_86" data-name="Group 86" transform="translate(-1485.039 -1953.224)" opacity="0.54">
    <path id="Path_2195" data-name="Path 2195" d="M0,0H359.28V155.229L93.9,162.85Z" transform="matrix(0.5, -0.866, 0.866, 0.5, 1555.272, 2264.472)" fill="rgba(142,243,251,0.16)"/>
    <path id="Path_2194" data-name="Path 2194" d="M0,0H325.886V163.1L95.755,166.071Z" transform="translate(1485.039 2264.298) rotate(-60.033)" fill="rgba(255,199,1,0.21)"/>
    <path id="Path_2183" data-name="Path 2183" d="M1357.017,578.773h-77.658l-38.829,67.254,38.829,67.256h77.658l38.829-67.256Z" transform="translate(407.883 1460.947)" fill="none" stroke="#07bbc8" stroke-linecap="round" stroke-linejoin="round" stroke-width="2"/>
    <path id="Path_2184" data-name="Path 2184" d="M1276.735,654.6h-66.55l-33.275,57.635,33.275,57.635h66.55l33.275-57.635Z" transform="translate(423.454 1312.428)" fill="none" stroke="#ffc701" stroke-linecap="round" stroke-linejoin="round" stroke-width="2"/>
    <path id="Path_2190" data-name="Path 2190" d="M1210.962,627.582H1105.724L1053.1,718.721l52.619,91.141h105.238l52.62-91.141Z" transform="translate(469.883 1388.254)" fill="none" stroke="#9b53ec" stroke-linecap="round" stroke-linejoin="round" stroke-width="2"/>
  </g>
</svg>
